<?xml version="1.0" encoding="utf-8"?>
<!-- Generator: Adobe Illustrator 19.2.1, SVG Export Plug-In . SVG Version: 6.00 Build 0)  -->
<svg version="1.1" id="Layer_1" xmlns="http://www.w3.org/2000/svg" xmlns:xlink="http://www.w3.org/1999/xlink" x="0px" y="0px"
	 viewBox="0 0 276.9 241.4" style="enable-background:new 0 0 276.9 241.4;" xml:space="preserve">
<style type="text/css">
	.st0{fill:#379CF4;}
	.st1{fill:#0D2131;}
	.st2{display:none;}
</style>
<g>
	<g>
		<path class="st0" d="M107.5,22.9h17c6,0,10.9-4.9,10.9-10.9l0,0c0-6-4.9-10.9-10.9-10.9h-17c-6,0-10.9,4.9-10.9,10.9l0,0
			C96.6,18,101.5,22.9,107.5,22.9z"/>
		<path class="st0" d="M83,59.3h41.5c6,0,10.9-4.9,10.9-10.9l0,0c0-6-4.9-10.9-10.9-10.9H83c-6,0-10.9,4.9-10.9,10.9l0,0
			C72,54.4,76.9,59.3,83,59.3z"/>
		<path class="st0" d="M67.4,95.7h57.1c6,0,10.9-4.9,10.9-10.9l0,0c0-6-4.9-10.9-10.9-10.9H67.4c-6,0-10.9,4.9-10.9,10.9l0,0
			C56.5,90.8,61.4,95.7,67.4,95.7z"/>
		<path class="st0" d="M107.5,219.5h17c6,0,10.9,4.9,10.9,10.9l0,0c0,6-4.9,10.9-10.9,10.9h-17c-6,0-10.9-4.9-10.9-10.9l0,0
			C96.6,224.4,101.5,219.5,107.5,219.5z"/>
		<path class="st0" d="M83,183.1h41.5c6,0,10.9,4.9,10.9,10.9v0c0,6-4.9,10.9-10.9,10.9L83,205c-6,0-10.9-4.9-10.9-10.9v0
			C72,188,76.9,183.1,83,183.1z"/>
		<path class="st0" d="M67.4,146.7h57.1c6,0,10.9,4.9,10.9,10.9v0c0,6-4.9,10.9-10.9,10.9H67.4c-6,0-10.9-4.9-10.9-10.9v0
			C56.5,151.6,61.4,146.7,67.4,146.7z"/>
		<path class="st0" d="M61.6,132.1h62.9c6,0,10.9-4.9,10.9-10.9l0,0c0-6-4.9-10.9-10.9-10.9H61.6c-6,0-10.9,4.9-10.9,10.9l0,0
			C50.6,127.2,55.5,132.1,61.6,132.1z"/>
		<g>
			<path class="st1" d="M57.2,207.4h1.5c5.6,0,10.2,4.6,10.2,10.2l0,0c0,5.6-4.6,10.2-10.2,10.2h-1.5c-5.6,0-10.2-4.6-10.2-10.2l0,0
				C47,212,51.6,207.4,57.2,207.4z"/>
			<path class="st1" d="M28.2,168.4h13.4c6,0,10.9,4.9,10.9,10.9l0,0c0,6-4.9,10.9-10.9,10.9H28.2c-6,0-10.9-4.9-10.9-10.9l0,0
				C17.2,173.3,22.1,168.4,28.2,168.4z"/>
		</g>
		<g>
			<path class="st1" d="M57.2,36.1h1.5c5.6,0,10.2-4.6,10.2-10.2v0c0-5.6-4.6-10.2-10.2-10.2h-1.5c-5.6,0-10.2,4.6-10.2,10.2v0
				C47,31.5,51.6,36.1,57.2,36.1z"/>
			<path class="st1" d="M28.2,75.1h11.7c6,0,10.9-4.9,10.9-10.9v0c0-6-4.9-10.9-10.9-10.9H28.2c-6,0-10.9,4.9-10.9,10.9v0
				C17.2,70.2,22.1,75.1,28.2,75.1z"/>
		</g>
		<path class="st1" d="M11.9,128.2h18.9c6,0,10.9,4.9,10.9,10.9v0c0,6-4.9,10.9-10.9,10.9H11.9c-6,0-10.9-4.9-10.9-10.9v0
			C1,133.1,5.9,128.2,11.9,128.2z"/>
		<path class="st1" d="M15.5,90.1h16.8c6,0,10.9,4.9,10.9,10.9v0c0,6-4.9,10.9-10.9,10.9H15.5c-6,0-10.9-4.9-10.9-10.9v0
			C4.5,95,9.4,90.1,15.5,90.1z"/>
		<path class="st1" d="M201.4,22.9h-42.9c-6,0-10.9-4.9-10.9-10.9l0,0c0-6,4.9-10.9,10.9-10.9h42.9c6,0,10.9,4.9,10.9,10.9l0,0
			C212.3,18,207.4,22.9,201.4,22.9z"/>
		<path class="st1" d="M261,95.7h-17.5c-6,0-10.9-4.9-10.9-10.9v0c0-6,4.9-10.9,10.9-10.9H261c6,0,10.9,4.9,10.9,10.9v0
			C271.9,90.8,267,95.7,261,95.7z"/>
		<g>
			<path class="st1" d="M248.6,95.7h-89.8c-6,0-10.9-4.9-10.9-10.9l0,0c0-6,4.9-10.9,10.9-10.9h89.8c6,0,10.9,4.9,10.9,10.9l0,0
				C259.6,90.8,254.7,95.7,248.6,95.7z"/>
			<path class="st1" d="M192.2,183.1h-33.4c-6,0-10.9,4.9-10.9,10.9v0c0,6,4.9,10.9,10.9,10.9h33.4c6,0,10.9-4.9,10.9-10.9v0
				C203.2,188,198.3,183.1,192.2,183.1z"/>
			<path class="st1" d="M207.8,146.7h-49c-6,0-10.9,4.9-10.9,10.9v0c0,6,4.9,10.9,10.9,10.9h49c6,0,10.9-4.9,10.9-10.9v0
				C218.7,151.6,213.8,146.7,207.8,146.7z"/>
			<g>
				<g>
					<g>
						<path class="st0" d="M201.4,219.5h-42.9c-6,0-10.9,4.9-10.9,10.9l0,0c0,6,4.9,10.9,10.9,10.9h42.9c6,0,10.9-4.9,10.9-10.9l0,0
							C212.3,224.4,207.4,219.5,201.4,219.5z"/>
					</g>
					<g>
						<path class="st0" d="M245,183.4h-24.5c-6,0-10.9,4.9-10.9,10.9c0,6,4.9,10.9,10.9,10.9H245c6,0,10.9-4.9,10.9-10.9
							C255.9,188.3,251,183.4,245,183.4z"/>
					</g>
					<g>
						<path class="st0" d="M261.3,147h-19.5c-6,0-10.9,4.9-10.9,10.9c0,6,4.9,10.9,10.9,10.9h19.5c6,0,10.9-4.9,10.9-10.9
							C272.2,151.9,267.3,147,261.3,147z"/>
					</g>
					<g>
						<path class="st0" d="M266,110.3h-3h-13.3h-90.9c-6,0-10.9,4.9-10.9,10.9c0,6,4.9,10.9,10.9,10.9h90.9h13.3h3
							c6,0,10.9-4.9,10.9-10.9C276.9,115.2,272,110.3,266,110.3z"/>
					</g>
				</g>
			</g>
		</g>
		<g>
			<path class="st1" d="M147.6,48.4L147.6,48.4c0,6,4.9,10.9,10.9,10.9h82.7c6,0,10.9-4.9,10.9-10.9l0,0c0-6-4.9-10.9-10.9-10.9
				h-82.7C152.5,37.4,147.6,42.3,147.6,48.4z"/>
			<path class="st1" d="M244.6,37.4h-6.9c-6,0-10.9,4.9-10.9,10.9l0,0c0,6,4.9,10.9,10.9,10.9h6.9c6,0,10.9-4.9,10.9-10.9l0,0
				C255.6,42.3,250.7,37.4,244.6,37.4z"/>
		</g>
	</g>
</g>
<g class="st2">
	
		<text transform="matrix(1 0 0 1 494.888 880.6941)" style="display:inline;fill:#0D2131; font-family:'Ubuntu-Title'; font-size:220px;">themekit</text>
</g>
</svg>
