<svg width="251" height="553" viewBox="0 0 251 553" fill="none" xmlns="http://www.w3.org/2000/svg">
<circle cx="4.62623" cy="4.12556" r="4.12556" fill="#FFEBB7"/>
<circle cx="65.1334" cy="4.12556" r="4.12556" fill="#FFEBB7"/>
<circle cx="125.642" cy="4.12556" r="4.12556" fill="#FFEBB7"/>
<circle cx="186.15" cy="4.12556" r="4.12556" fill="#FFEBB7"/>
<circle cx="246.658" cy="4.12556" r="4.12556" fill="#FFEBB7"/>
<circle cx="4.62547" cy="64.6338" r="4.12556" fill="#FFEBB7"/>
<circle cx="65.1334" cy="64.6338" r="4.12556" fill="#FFEBB7"/>
<circle cx="125.642" cy="64.6338" r="4.12556" fill="#FFEBB7"/>
<circle cx="186.15" cy="64.6338" r="4.12556" fill="#FFEBB7"/>
<circle cx="246.658" cy="64.6338" r="4.12556" fill="#FFEBB7"/>
<circle cx="4.62547" cy="125.142" r="4.12556" fill="#FFEBB7"/>
<circle cx="65.1334" cy="125.142" r="4.12556" fill="#FFEBB7"/>
<circle cx="125.642" cy="125.142" r="4.12556" fill="#FFEBB7"/>
<circle cx="186.15" cy="125.142" r="4.12556" fill="#FFEBB7"/>
<circle cx="246.658" cy="125.142" r="4.12556" fill="#FFEBB7"/>
<circle cx="4.62547" cy="185.65" r="4.12556" fill="#FFEBB7"/>
<circle cx="65.1334" cy="185.65" r="4.12556" fill="#FFEBB7"/>
<circle cx="125.642" cy="185.65" r="4.12556" fill="#FFEBB7"/>
<circle cx="186.15" cy="185.65" r="4.12556" fill="#FFEBB7"/>
<circle cx="246.658" cy="185.65" r="4.12556" fill="#FFEBB7"/>
<circle cx="4.62547" cy="246.158" r="4.12556" fill="#FFEBB7"/>
<circle cx="65.1334" cy="246.158" r="4.12556" fill="#FFEBB7"/>
<circle cx="125.642" cy="246.158" r="4.12556" fill="#FFEBB7"/>
<circle cx="186.15" cy="246.158" r="4.12556" fill="#FFEBB7"/>
<circle cx="246.658" cy="246.158" r="4.12556" fill="#FFEBB7"/>
<circle cx="4.62547" cy="306.667" r="4.12556" fill="#FFEBB7"/>
<circle cx="65.1335" cy="306.667" r="4.12556" fill="#FFEBB7"/>
<circle cx="125.642" cy="306.667" r="4.12556" fill="#FFEBB7"/>
<circle cx="186.15" cy="306.667" r="4.12556" fill="#FFEBB7"/>
<circle cx="246.658" cy="306.667" r="4.12556" fill="#FFEBB7"/>
<circle cx="4.62547" cy="367.175" r="4.12556" fill="#FFEBB7"/>
<circle cx="65.1335" cy="367.175" r="4.12556" fill="#FFEBB7"/>
<circle cx="125.642" cy="367.175" r="4.12556" fill="#FFEBB7"/>
<circle cx="186.15" cy="367.175" r="4.12556" fill="#FFEBB7"/>
<circle cx="246.658" cy="367.175" r="4.12556" fill="#FFEBB7"/>
<circle cx="4.62547" cy="427.683" r="4.12556" fill="#FFEBB7"/>
<circle cx="65.1335" cy="427.683" r="4.12556" fill="#FFEBB7"/>
<circle cx="125.642" cy="427.683" r="4.12556" fill="#FFEBB7"/>
<circle cx="186.15" cy="427.683" r="4.12556" fill="#FFEBB7"/>
<circle cx="246.658" cy="427.683" r="4.12556" fill="#FFEBB7"/>
<circle cx="4.62547" cy="488.191" r="4.12556" fill="#FFEBB7"/>
<circle cx="65.1335" cy="488.191" r="4.12556" fill="#FFEBB7"/>
<circle cx="125.642" cy="488.191" r="4.12556" fill="#FFEBB7"/>
<circle cx="186.15" cy="488.191" r="4.12556" fill="#FFEBB7"/>
<circle cx="246.658" cy="488.191" r="4.12556" fill="#FFEBB7"/>
<circle cx="4.62547" cy="548.699" r="4.12556" fill="#FFEBB7"/>
<circle cx="65.1335" cy="548.699" r="4.12556" fill="#FFEBB7"/>
<circle cx="125.642" cy="548.699" r="4.12556" fill="#FFEBB7"/>
<circle cx="186.15" cy="548.699" r="4.12556" fill="#FFEBB7"/>
<circle cx="246.658" cy="548.699" r="4.12556" fill="#FFEBB7"/>
</svg>
